<?xml version="1.0" encoding="UTF-8" standalone="no"?>
<!DOCTYPE svg PUBLIC "-//W3C//DTD SVG 1.1//EN"
 "http://www.w3.org/Graphics/SVG/1.1/DTD/svg11.dtd">
<!-- Generated by graphviz version 2.43.0 (0)
 -->
<!-- Title: G Pages: 1 -->
<svg width="350pt" height="386pt"
 viewBox="0.00 0.00 350.00 386.00" xmlns="http://www.w3.org/2000/svg" xmlns:xlink="http://www.w3.org/1999/xlink">
<g id="graph0" class="graph" transform="scale(1 1) rotate(0) translate(4 382)">
<title>G</title>
<polygon fill="white" stroke="transparent" points="-4,4 -4,-382 346,-382 346,4 -4,4"/>
<text text-anchor="middle" x="171" y="-22.8" font-family="Helvetica,Arial,sans-serif" font-size="14.00">Схема связей прямоугольного графа </text>
<text text-anchor="middle" x="171" y="-7.8" font-family="Helvetica,Arial,sans-serif" font-size="14.00">(width = 5, height = 5)</text>
<!-- 0 -->
<g id="node1" class="node">
<title>0</title>
<text text-anchor="middle" x="27" y="-356.3" font-family="Helvetica,Arial,sans-serif" font-size="14.00">0</text>
</g>
<!-- 5 -->
<g id="node2" class="node">
<title>5</title>
<text text-anchor="middle" x="27" y="-284.3" font-family="Helvetica,Arial,sans-serif" font-size="14.00">5</text>
</g>
<!-- 0&#45;&#45;5 -->
<g id="edge1" class="edge">
<title>0&#45;&#45;5</title>
<path fill="none" stroke="black" d="M27,-341.7C27,-330.85 27,-316.92 27,-306.1"/>
</g>
<!-- 1 -->
<g id="node3" class="node">
<title>1</title>
<text text-anchor="middle" x="99" y="-356.3" font-family="Helvetica,Arial,sans-serif" font-size="14.00">1</text>
</g>
<!-- 0&#45;&#45;1 -->
<g id="edge53" class="edge">
<title>0&#45;&#45;1</title>
<path fill="none" stroke="black" d="M54.28,-360C60.1,-360 65.93,-360 71.75,-360"/>
</g>
<!-- 6 -->
<g id="node4" class="node">
<title>6</title>
<text text-anchor="middle" x="99" y="-284.3" font-family="Helvetica,Arial,sans-serif" font-size="14.00">6</text>
</g>
<!-- 0&#45;&#45;6 -->
<g id="edge21" class="edge">
<title>0&#45;&#45;6</title>
<path fill="none" stroke="black" d="M44.8,-341.7C55.96,-330.85 70.29,-316.92 81.41,-306.1"/>
</g>
<!-- 5&#45;&#45;1 -->
<g id="edge52" class="edge">
<title>5&#45;&#45;1</title>
<path fill="none" stroke="black" d="M44.59,-306.1C55.71,-316.92 70.04,-330.85 81.2,-341.7"/>
</g>
<!-- 5&#45;&#45;6 -->
<g id="edge57" class="edge">
<title>5&#45;&#45;6</title>
<path fill="none" stroke="black" d="M54.28,-288C60.1,-288 65.93,-288 71.75,-288"/>
</g>
<!-- 10 -->
<g id="node11" class="node">
<title>10</title>
<text text-anchor="middle" x="27" y="-212.3" font-family="Helvetica,Arial,sans-serif" font-size="14.00">10</text>
</g>
<!-- 5&#45;&#45;10 -->
<g id="edge6" class="edge">
<title>5&#45;&#45;10</title>
<path fill="none" stroke="black" d="M27,-269.7C27,-258.85 27,-244.92 27,-234.1"/>
</g>
<!-- 11 -->
<g id="node12" class="node">
<title>11</title>
<text text-anchor="middle" x="99" y="-212.3" font-family="Helvetica,Arial,sans-serif" font-size="14.00">11</text>
</g>
<!-- 5&#45;&#45;11 -->
<g id="edge25" class="edge">
<title>5&#45;&#45;11</title>
<path fill="none" stroke="black" d="M44.8,-269.7C55.96,-258.85 70.29,-244.92 81.41,-234.1"/>
</g>
<!-- 1&#45;&#45;6 -->
<g id="edge2" class="edge">
<title>1&#45;&#45;6</title>
<path fill="none" stroke="black" d="M99,-341.7C99,-330.85 99,-316.92 99,-306.1"/>
</g>
<!-- 2 -->
<g id="node5" class="node">
<title>2</title>
<text text-anchor="middle" x="171" y="-356.3" font-family="Helvetica,Arial,sans-serif" font-size="14.00">2</text>
</g>
<!-- 1&#45;&#45;2 -->
<g id="edge54" class="edge">
<title>1&#45;&#45;2</title>
<path fill="none" stroke="black" d="M126.28,-360C132.1,-360 137.93,-360 143.75,-360"/>
</g>
<!-- 7 -->
<g id="node6" class="node">
<title>7</title>
<text text-anchor="middle" x="171" y="-284.3" font-family="Helvetica,Arial,sans-serif" font-size="14.00">7</text>
</g>
<!-- 1&#45;&#45;7 -->
<g id="edge22" class="edge">
<title>1&#45;&#45;7</title>
<path fill="none" stroke="black" d="M116.8,-341.7C127.96,-330.85 142.29,-316.92 153.41,-306.1"/>
</g>
<!-- 6&#45;&#45;2 -->
<g id="edge51" class="edge">
<title>6&#45;&#45;2</title>
<path fill="none" stroke="black" d="M116.59,-306.1C127.71,-316.92 142.04,-330.85 153.2,-341.7"/>
</g>
<!-- 6&#45;&#45;7 -->
<g id="edge58" class="edge">
<title>6&#45;&#45;7</title>
<path fill="none" stroke="black" d="M126.28,-288C132.1,-288 137.93,-288 143.75,-288"/>
</g>
<!-- 6&#45;&#45;11 -->
<g id="edge7" class="edge">
<title>6&#45;&#45;11</title>
<path fill="none" stroke="black" d="M99,-269.7C99,-258.85 99,-244.92 99,-234.1"/>
</g>
<!-- 12 -->
<g id="node13" class="node">
<title>12</title>
<text text-anchor="middle" x="171" y="-212.3" font-family="Helvetica,Arial,sans-serif" font-size="14.00">12</text>
</g>
<!-- 6&#45;&#45;12 -->
<g id="edge26" class="edge">
<title>6&#45;&#45;12</title>
<path fill="none" stroke="black" d="M116.8,-269.7C127.96,-258.85 142.29,-244.92 153.41,-234.1"/>
</g>
<!-- 2&#45;&#45;7 -->
<g id="edge3" class="edge">
<title>2&#45;&#45;7</title>
<path fill="none" stroke="black" d="M171,-341.7C171,-330.85 171,-316.92 171,-306.1"/>
</g>
<!-- 3 -->
<g id="node7" class="node">
<title>3</title>
<text text-anchor="middle" x="243" y="-356.3" font-family="Helvetica,Arial,sans-serif" font-size="14.00">3</text>
</g>
<!-- 2&#45;&#45;3 -->
<g id="edge55" class="edge">
<title>2&#45;&#45;3</title>
<path fill="none" stroke="black" d="M198.28,-360C204.1,-360 209.93,-360 215.75,-360"/>
</g>
<!-- 8 -->
<g id="node8" class="node">
<title>8</title>
<text text-anchor="middle" x="243" y="-284.3" font-family="Helvetica,Arial,sans-serif" font-size="14.00">8</text>
</g>
<!-- 2&#45;&#45;8 -->
<g id="edge23" class="edge">
<title>2&#45;&#45;8</title>
<path fill="none" stroke="black" d="M188.8,-341.7C199.96,-330.85 214.29,-316.92 225.41,-306.1"/>
</g>
<!-- 7&#45;&#45;3 -->
<g id="edge50" class="edge">
<title>7&#45;&#45;3</title>
<path fill="none" stroke="black" d="M188.59,-306.1C199.71,-316.92 214.04,-330.85 225.2,-341.7"/>
</g>
<!-- 7&#45;&#45;8 -->
<g id="edge59" class="edge">
<title>7&#45;&#45;8</title>
<path fill="none" stroke="black" d="M198.28,-288C204.1,-288 209.93,-288 215.75,-288"/>
</g>
<!-- 7&#45;&#45;12 -->
<g id="edge8" class="edge">
<title>7&#45;&#45;12</title>
<path fill="none" stroke="black" d="M171,-269.7C171,-258.85 171,-244.92 171,-234.1"/>
</g>
<!-- 13 -->
<g id="node14" class="node">
<title>13</title>
<text text-anchor="middle" x="243" y="-212.3" font-family="Helvetica,Arial,sans-serif" font-size="14.00">13</text>
</g>
<!-- 7&#45;&#45;13 -->
<g id="edge27" class="edge">
<title>7&#45;&#45;13</title>
<path fill="none" stroke="black" d="M188.8,-269.7C199.96,-258.85 214.29,-244.92 225.41,-234.1"/>
</g>
<!-- 3&#45;&#45;8 -->
<g id="edge4" class="edge">
<title>3&#45;&#45;8</title>
<path fill="none" stroke="black" d="M243,-341.7C243,-330.85 243,-316.92 243,-306.1"/>
</g>
<!-- 4 -->
<g id="node9" class="node">
<title>4</title>
<text text-anchor="middle" x="315" y="-356.3" font-family="Helvetica,Arial,sans-serif" font-size="14.00">4</text>
</g>
<!-- 3&#45;&#45;4 -->
<g id="edge56" class="edge">
<title>3&#45;&#45;4</title>
<path fill="none" stroke="black" d="M270.28,-360C276.1,-360 281.93,-360 287.75,-360"/>
</g>
<!-- 9 -->
<g id="node10" class="node">
<title>9</title>
<text text-anchor="middle" x="315" y="-284.3" font-family="Helvetica,Arial,sans-serif" font-size="14.00">9</text>
</g>
<!-- 3&#45;&#45;9 -->
<g id="edge24" class="edge">
<title>3&#45;&#45;9</title>
<path fill="none" stroke="black" d="M260.8,-341.7C271.96,-330.85 286.29,-316.92 297.41,-306.1"/>
</g>
<!-- 8&#45;&#45;4 -->
<g id="edge49" class="edge">
<title>8&#45;&#45;4</title>
<path fill="none" stroke="black" d="M260.59,-306.1C271.71,-316.92 286.04,-330.85 297.2,-341.7"/>
</g>
<!-- 8&#45;&#45;9 -->
<g id="edge60" class="edge">
<title>8&#45;&#45;9</title>
<path fill="none" stroke="black" d="M270.28,-288C276.1,-288 281.93,-288 287.75,-288"/>
</g>
<!-- 8&#45;&#45;13 -->
<g id="edge9" class="edge">
<title>8&#45;&#45;13</title>
<path fill="none" stroke="black" d="M243,-269.7C243,-258.85 243,-244.92 243,-234.1"/>
</g>
<!-- 14 -->
<g id="node15" class="node">
<title>14</title>
<text text-anchor="middle" x="315" y="-212.3" font-family="Helvetica,Arial,sans-serif" font-size="14.00">14</text>
</g>
<!-- 8&#45;&#45;14 -->
<g id="edge28" class="edge">
<title>8&#45;&#45;14</title>
<path fill="none" stroke="black" d="M260.8,-269.7C271.96,-258.85 286.29,-244.92 297.41,-234.1"/>
</g>
<!-- 4&#45;&#45;9 -->
<g id="edge5" class="edge">
<title>4&#45;&#45;9</title>
<path fill="none" stroke="black" d="M315,-341.7C315,-330.85 315,-316.92 315,-306.1"/>
</g>
<!-- 9&#45;&#45;14 -->
<g id="edge10" class="edge">
<title>9&#45;&#45;14</title>
<path fill="none" stroke="black" d="M315,-269.7C315,-258.85 315,-244.92 315,-234.1"/>
</g>
<!-- 10&#45;&#45;6 -->
<g id="edge48" class="edge">
<title>10&#45;&#45;6</title>
<path fill="none" stroke="black" d="M44.59,-234.1C55.71,-244.92 70.04,-258.85 81.2,-269.7"/>
</g>
<!-- 10&#45;&#45;11 -->
<g id="edge61" class="edge">
<title>10&#45;&#45;11</title>
<path fill="none" stroke="black" d="M54.28,-216C60.1,-216 65.93,-216 71.75,-216"/>
</g>
<!-- 15 -->
<g id="node16" class="node">
<title>15</title>
<text text-anchor="middle" x="27" y="-140.3" font-family="Helvetica,Arial,sans-serif" font-size="14.00">15</text>
</g>
<!-- 10&#45;&#45;15 -->
<g id="edge11" class="edge">
<title>10&#45;&#45;15</title>
<path fill="none" stroke="black" d="M27,-197.7C27,-186.85 27,-172.92 27,-162.1"/>
</g>
<!-- 16 -->
<g id="node17" class="node">
<title>16</title>
<text text-anchor="middle" x="99" y="-140.3" font-family="Helvetica,Arial,sans-serif" font-size="14.00">16</text>
</g>
<!-- 10&#45;&#45;16 -->
<g id="edge29" class="edge">
<title>10&#45;&#45;16</title>
<path fill="none" stroke="black" d="M44.8,-197.7C55.96,-186.85 70.29,-172.92 81.41,-162.1"/>
</g>
<!-- 11&#45;&#45;7 -->
<g id="edge47" class="edge">
<title>11&#45;&#45;7</title>
<path fill="none" stroke="black" d="M116.59,-234.1C127.71,-244.92 142.04,-258.85 153.2,-269.7"/>
</g>
<!-- 11&#45;&#45;12 -->
<g id="edge62" class="edge">
<title>11&#45;&#45;12</title>
<path fill="none" stroke="black" d="M126.28,-216C132.1,-216 137.93,-216 143.75,-216"/>
</g>
<!-- 11&#45;&#45;16 -->
<g id="edge12" class="edge">
<title>11&#45;&#45;16</title>
<path fill="none" stroke="black" d="M99,-197.7C99,-186.85 99,-172.92 99,-162.1"/>
</g>
<!-- 17 -->
<g id="node18" class="node">
<title>17</title>
<text text-anchor="middle" x="171" y="-140.3" font-family="Helvetica,Arial,sans-serif" font-size="14.00">17</text>
</g>
<!-- 11&#45;&#45;17 -->
<g id="edge30" class="edge">
<title>11&#45;&#45;17</title>
<path fill="none" stroke="black" d="M116.8,-197.7C127.96,-186.85 142.29,-172.92 153.41,-162.1"/>
</g>
<!-- 12&#45;&#45;8 -->
<g id="edge46" class="edge">
<title>12&#45;&#45;8</title>
<path fill="none" stroke="black" d="M188.59,-234.1C199.71,-244.92 214.04,-258.85 225.2,-269.7"/>
</g>
<!-- 12&#45;&#45;13 -->
<g id="edge63" class="edge">
<title>12&#45;&#45;13</title>
<path fill="none" stroke="black" d="M198.28,-216C204.1,-216 209.93,-216 215.75,-216"/>
</g>
<!-- 12&#45;&#45;17 -->
<g id="edge13" class="edge">
<title>12&#45;&#45;17</title>
<path fill="none" stroke="black" d="M171,-197.7C171,-186.85 171,-172.92 171,-162.1"/>
</g>
<!-- 18 -->
<g id="node19" class="node">
<title>18</title>
<text text-anchor="middle" x="243" y="-140.3" font-family="Helvetica,Arial,sans-serif" font-size="14.00">18</text>
</g>
<!-- 12&#45;&#45;18 -->
<g id="edge31" class="edge">
<title>12&#45;&#45;18</title>
<path fill="none" stroke="black" d="M188.8,-197.7C199.96,-186.85 214.29,-172.92 225.41,-162.1"/>
</g>
<!-- 13&#45;&#45;9 -->
<g id="edge45" class="edge">
<title>13&#45;&#45;9</title>
<path fill="none" stroke="black" d="M260.59,-234.1C271.71,-244.92 286.04,-258.85 297.2,-269.7"/>
</g>
<!-- 13&#45;&#45;14 -->
<g id="edge64" class="edge">
<title>13&#45;&#45;14</title>
<path fill="none" stroke="black" d="M270.28,-216C276.1,-216 281.93,-216 287.75,-216"/>
</g>
<!-- 13&#45;&#45;18 -->
<g id="edge14" class="edge">
<title>13&#45;&#45;18</title>
<path fill="none" stroke="black" d="M243,-197.7C243,-186.85 243,-172.92 243,-162.1"/>
</g>
<!-- 19 -->
<g id="node20" class="node">
<title>19</title>
<text text-anchor="middle" x="315" y="-140.3" font-family="Helvetica,Arial,sans-serif" font-size="14.00">19</text>
</g>
<!-- 13&#45;&#45;19 -->
<g id="edge32" class="edge">
<title>13&#45;&#45;19</title>
<path fill="none" stroke="black" d="M260.8,-197.7C271.96,-186.85 286.29,-172.92 297.41,-162.1"/>
</g>
<!-- 14&#45;&#45;19 -->
<g id="edge15" class="edge">
<title>14&#45;&#45;19</title>
<path fill="none" stroke="black" d="M315,-197.7C315,-186.85 315,-172.92 315,-162.1"/>
</g>
<!-- 15&#45;&#45;11 -->
<g id="edge44" class="edge">
<title>15&#45;&#45;11</title>
<path fill="none" stroke="black" d="M44.59,-162.1C55.71,-172.92 70.04,-186.85 81.2,-197.7"/>
</g>
<!-- 15&#45;&#45;16 -->
<g id="edge65" class="edge">
<title>15&#45;&#45;16</title>
<path fill="none" stroke="black" d="M54.28,-144C60.1,-144 65.93,-144 71.75,-144"/>
</g>
<!-- 20 -->
<g id="node21" class="node">
<title>20</title>
<text text-anchor="middle" x="27" y="-68.3" font-family="Helvetica,Arial,sans-serif" font-size="14.00">20</text>
</g>
<!-- 15&#45;&#45;20 -->
<g id="edge16" class="edge">
<title>15&#45;&#45;20</title>
<path fill="none" stroke="black" d="M27,-125.7C27,-114.85 27,-100.92 27,-90.1"/>
</g>
<!-- 21 -->
<g id="node22" class="node">
<title>21</title>
<text text-anchor="middle" x="99" y="-68.3" font-family="Helvetica,Arial,sans-serif" font-size="14.00">21</text>
</g>
<!-- 15&#45;&#45;21 -->
<g id="edge33" class="edge">
<title>15&#45;&#45;21</title>
<path fill="none" stroke="black" d="M44.8,-125.7C55.96,-114.85 70.29,-100.92 81.41,-90.1"/>
</g>
<!-- 16&#45;&#45;12 -->
<g id="edge43" class="edge">
<title>16&#45;&#45;12</title>
<path fill="none" stroke="black" d="M116.59,-162.1C127.71,-172.92 142.04,-186.85 153.2,-197.7"/>
</g>
<!-- 16&#45;&#45;17 -->
<g id="edge66" class="edge">
<title>16&#45;&#45;17</title>
<path fill="none" stroke="black" d="M126.28,-144C132.1,-144 137.93,-144 143.75,-144"/>
</g>
<!-- 16&#45;&#45;21 -->
<g id="edge17" class="edge">
<title>16&#45;&#45;21</title>
<path fill="none" stroke="black" d="M99,-125.7C99,-114.85 99,-100.92 99,-90.1"/>
</g>
<!-- 22 -->
<g id="node23" class="node">
<title>22</title>
<text text-anchor="middle" x="171" y="-68.3" font-family="Helvetica,Arial,sans-serif" font-size="14.00">22</text>
</g>
<!-- 16&#45;&#45;22 -->
<g id="edge34" class="edge">
<title>16&#45;&#45;22</title>
<path fill="none" stroke="black" d="M116.8,-125.7C127.96,-114.85 142.29,-100.92 153.41,-90.1"/>
</g>
<!-- 17&#45;&#45;13 -->
<g id="edge42" class="edge">
<title>17&#45;&#45;13</title>
<path fill="none" stroke="black" d="M188.59,-162.1C199.71,-172.92 214.04,-186.85 225.2,-197.7"/>
</g>
<!-- 17&#45;&#45;18 -->
<g id="edge67" class="edge">
<title>17&#45;&#45;18</title>
<path fill="none" stroke="black" d="M198.28,-144C204.1,-144 209.93,-144 215.75,-144"/>
</g>
<!-- 17&#45;&#45;22 -->
<g id="edge18" class="edge">
<title>17&#45;&#45;22</title>
<path fill="none" stroke="black" d="M171,-125.7C171,-114.85 171,-100.92 171,-90.1"/>
</g>
<!-- 23 -->
<g id="node24" class="node">
<title>23</title>
<text text-anchor="middle" x="243" y="-68.3" font-family="Helvetica,Arial,sans-serif" font-size="14.00">23</text>
</g>
<!-- 17&#45;&#45;23 -->
<g id="edge35" class="edge">
<title>17&#45;&#45;23</title>
<path fill="none" stroke="black" d="M188.8,-125.7C199.96,-114.85 214.29,-100.92 225.41,-90.1"/>
</g>
<!-- 18&#45;&#45;14 -->
<g id="edge41" class="edge">
<title>18&#45;&#45;14</title>
<path fill="none" stroke="black" d="M260.59,-162.1C271.71,-172.92 286.04,-186.85 297.2,-197.7"/>
</g>
<!-- 18&#45;&#45;19 -->
<g id="edge68" class="edge">
<title>18&#45;&#45;19</title>
<path fill="none" stroke="black" d="M270.28,-144C276.1,-144 281.93,-144 287.75,-144"/>
</g>
<!-- 18&#45;&#45;23 -->
<g id="edge19" class="edge">
<title>18&#45;&#45;23</title>
<path fill="none" stroke="black" d="M243,-125.7C243,-114.85 243,-100.92 243,-90.1"/>
</g>
<!-- 24 -->
<g id="node25" class="node">
<title>24</title>
<text text-anchor="middle" x="315" y="-68.3" font-family="Helvetica,Arial,sans-serif" font-size="14.00">24</text>
</g>
<!-- 18&#45;&#45;24 -->
<g id="edge36" class="edge">
<title>18&#45;&#45;24</title>
<path fill="none" stroke="black" d="M260.8,-125.7C271.96,-114.85 286.29,-100.92 297.41,-90.1"/>
</g>
<!-- 19&#45;&#45;24 -->
<g id="edge20" class="edge">
<title>19&#45;&#45;24</title>
<path fill="none" stroke="black" d="M315,-125.7C315,-114.85 315,-100.92 315,-90.1"/>
</g>
<!-- 20&#45;&#45;16 -->
<g id="edge40" class="edge">
<title>20&#45;&#45;16</title>
<path fill="none" stroke="black" d="M44.59,-90.1C55.71,-100.92 70.04,-114.85 81.2,-125.7"/>
</g>
<!-- 20&#45;&#45;21 -->
<g id="edge69" class="edge">
<title>20&#45;&#45;21</title>
<path fill="none" stroke="black" d="M54.28,-72C60.1,-72 65.93,-72 71.75,-72"/>
</g>
<!-- 21&#45;&#45;17 -->
<g id="edge39" class="edge">
<title>21&#45;&#45;17</title>
<path fill="none" stroke="black" d="M116.59,-90.1C127.71,-100.92 142.04,-114.85 153.2,-125.7"/>
</g>
<!-- 21&#45;&#45;22 -->
<g id="edge70" class="edge">
<title>21&#45;&#45;22</title>
<path fill="none" stroke="black" d="M126.28,-72C132.1,-72 137.93,-72 143.75,-72"/>
</g>
<!-- 22&#45;&#45;18 -->
<g id="edge38" class="edge">
<title>22&#45;&#45;18</title>
<path fill="none" stroke="black" d="M188.59,-90.1C199.71,-100.92 214.04,-114.85 225.2,-125.7"/>
</g>
<!-- 22&#45;&#45;23 -->
<g id="edge71" class="edge">
<title>22&#45;&#45;23</title>
<path fill="none" stroke="black" d="M198.28,-72C204.1,-72 209.93,-72 215.75,-72"/>
</g>
<!-- 23&#45;&#45;19 -->
<g id="edge37" class="edge">
<title>23&#45;&#45;19</title>
<path fill="none" stroke="black" d="M260.59,-90.1C271.71,-100.92 286.04,-114.85 297.2,-125.7"/>
</g>
<!-- 23&#45;&#45;24 -->
<g id="edge72" class="edge">
<title>23&#45;&#45;24</title>
<path fill="none" stroke="black" d="M270.28,-72C276.1,-72 281.93,-72 287.75,-72"/>
</g>
</g>
</svg>
